<?xml version="1.0" standalone="no"?>
<!DOCTYPE svg PUBLIC "-//W3C//DTD SVG 20010904//EN"
 "http://www.w3.org/TR/2001/REC-SVG-20010904/DTD/svg10.dtd">
<svg version="1.0" xmlns="http://www.w3.org/2000/svg"
 width="6000.000000pt" height="5996.000000pt" viewBox="0 0 6000.000000 5996.000000"
 preserveAspectRatio="xMidYMid meet">
<metadata>
Created by potrace 1.15, written by Peter Selinger 2001-2017
</metadata>
<g transform="translate(0.000000,5996.000000) scale(0.100000,-0.100000)"
fill="#000000" stroke="none">
<path d="M28820 57868 c0 -13 5 -153 10 -313 5 -159 16 -567 25 -905 8 -338
17 -689 20 -780 3 -91 7 -264 10 -385 12 -476 35 -1391 40 -1585 3 -113 12
-466 20 -785 8 -319 17 -686 21 -815 3 -129 11 -447 18 -707 6 -259 14 -475
18 -478 3 -4 21 1 38 10 l33 17 -7 141 c-3 78 -11 288 -17 467 -7 230 -14 338
-25 369 -17 53 -18 92 -4 143 9 32 -40 1660 -85 2828 -6 173 -43 1250 -50
1480 -3 96 -7 213 -10 260 -3 47 -7 189 -10 315 -4 127 -10 340 -15 475 -6
135 -10 251 -10 258 0 6 -4 12 -10 12 -5 0 -10 -10 -10 -22z"/>
<path d="M31449 57478 c-7 -25 -72 -1121 -67 -1124 4 -3 10 5 13 18 5 21 46
640 60 908 3 58 8 126 11 153 4 31 2 47 -5 47 -6 0 -11 -1 -12 -2z"/>
<path d="M29144 55598 c10 -567 24 -1580 32 -2198 4 -289 9 -641 13 -784 6
-255 6 -259 28 -267 12 -4 24 -5 26 -1 2 4 -14 689 -34 1522 -21 833 -41 1653
-44 1823 -5 196 -11 307 -17 307 -7 0 -8 -133 -4 -402z"/>
<path d="M31336 55719 c-2 -8 -88 -1308 -190 -2889 -103 -1581 -189 -2899
-192 -2927 -6 -51 -5 -53 18 -53 l24 0 18 293 c9 160 19 321 21 357 3 36 12
175 20 310 8 135 17 281 20 325 3 44 12 190 20 325 8 135 17 281 20 325 6 99
33 542 40 650 2 44 9 154 15 245 5 91 12 206 15 255 3 50 8 122 10 160 7 105
34 547 40 655 3 52 7 124 10 160 12 178 15 232 20 310 2 47 7 126 10 175 52
796 81 1322 74 1329 -5 6 -10 4 -13 -5z"/>
<path d="M26344 54318 c11 -45 67 -469 331 -2478 146 -1113 267 -2026 269
-2028 9 -8 76 11 76 22 0 6 -97 669 -214 1473 -164 1117 -220 1473 -236 1510
-17 40 -22 75 -25 179 -4 164 -173 1335 -193 1342 -9 3 -11 -3 -8 -20z"/>
<path d="M26687 53580 c-87 -10 -160 -20 -162 -22 -3 -3 63 -433 70 -455 3 -8
22 0 55 22 79 53 168 59 252 15 22 -12 41 -20 42 -18 2 2 -11 263 -23 466 -1
15 -34 14 -234 -8z"/>
<path d="M31360 53553 c0 -54 -166 -3348 -175 -3470 -7 -90 8 -116 20 -35 3
26 56 355 116 732 61 377 114 712 119 745 8 48 176 1100 194 1212 65 394 128
814 123 819 -6 7 -318 43 -369 44 -27 0 -28 -2 -28 -47z"/>
<path d="M26908 52713 c-49 -33 -146 -43 -202 -19 -22 9 -41 14 -43 12 -3 -3
405 -2597 423 -2683 2 -13 9 -23 15 -23 7 0 9 16 5 48 -7 49 -136 2574 -136
2650 0 49 -9 52 -62 15z"/>
<path d="M21973 52572 c-98 -31 -173 -61 -173 -68 0 -6 27 -83 61 -170 33 -88
72 -188 85 -224 14 -36 32 -80 40 -99 10 -22 12 -36 5 -40 -6 -4 7 -53 34
-129 24 -67 72 -204 106 -304 34 -101 129 -381 212 -623 82 -242 171 -505 197
-585 27 -80 119 -352 205 -605 86 -253 170 -500 186 -550 16 -49 41 -122 55
-162 l25 -71 32 10 c18 6 33 12 35 14 3 2 -85 256 -128 369 -11 28 -38 102
-60 165 -23 63 -61 169 -84 235 -24 66 -67 185 -95 265 -99 274 -129 358 -161
443 -11 28 -38 104 -60 167 -43 120 -100 278 -176 490 -25 69 -61 168 -79 220
-19 52 -52 145 -74 205 -23 61 -41 115 -40 120 0 11 50 -114 131 -325 28 -74
63 -166 78 -205 15 -38 85 -218 154 -400 70 -181 147 -379 171 -440 23 -60
128 -333 233 -605 104 -272 193 -504 197 -515 6 -15 9 -16 12 -5 3 13 -191
749 -621 2360 l-52 195 -60 1 c-223 2 -285 294 -81 379 31 13 37 20 32 36 -9
26 -135 500 -135 505 0 10 -49 -2 -207 -54z"/>
<path d="M35836 51607 c-378 -1421 -647 -2430 -653 -2449 -11 -36 16 -17 28
20 6 20 31 87 55 147 23 61 93 241 154 400 62 160 177 459 257 665 80 206 200
519 268 695 68 176 212 550 320 830 108 281 198 520 201 532 3 17 -3 24 -33
34 -21 6 -43 15 -48 20 -7 5 -22 -4 -39 -21 -37 -40 -92 -56 -138 -41 -43 14
-94 66 -105 108 -7 27 -50 -125 -267 -940z"/>
<path d="M29218 52033 c-17 -4 -18 -27 -18 -306 0 -166 3 -366 7 -445 l6 -142
28 -14 c16 -8 30 -11 32 -8 3 6 -19 911 -22 920 -1 2 -10 1 -33 -5z"/>
<path d="M40462 51483 c-17 -38 -161 -335 -321 -660 -160 -326 -291 -598 -291
-603 0 -31 30 19 110 184 48 99 135 278 193 396 57 118 161 331 231 474 69
142 126 262 126 267 0 27 -21 1 -48 -58z"/>
<path d="M16983 51363 c65 -113 444 -777 471 -825 39 -71 43 -93 6 -33 -21 34
-22 34 -46 18 -14 -9 -23 -21 -21 -27 4 -9 118 -186 695 -1071 36 -55 330
-559 654 -1120 325 -561 592 -1022 594 -1024 10 -10 55 24 51 39 -4 15 -373
641 -458 777 -21 34 -39 65 -39 68 0 6 -61 108 -69 115 -4 3 -17 25 -30 50
-44 83 -5 27 200 -290 112 -173 235 -363 274 -422 38 -59 75 -115 81 -125 7
-10 15 -15 19 -11 4 4 3 13 -2 20 -6 7 -102 193 -213 413 -111 220 -271 535
-355 700 -84 165 -244 480 -355 700 -111 220 -251 495 -310 610 -59 116 -172
337 -250 493 -79 155 -147 282 -151 282 -7 0 -228 -126 -239 -137 -2 -2 8 -27
24 -56 16 -29 24 -47 19 -42 -10 9 -336 552 -487 808 -31 53 -59 97 -62 97 -3
0 -3 -3 -1 -7z"/>
<path d="M40501 50603 c-27 -54 -394 -777 -815 -1607 -421 -830 -763 -1512
-760 -1515 4 -3 11 2 18 13 24 41 378 585 1104 1700 692 1061 762 1172 762
1209 0 58 35 124 84 157 70 49 83 61 41 38 -22 -12 -55 -35 -73 -52 -19 -17
-32 -25 -30 -17 2 10 -44 42 -132 93 -74 43 -138 78 -142 78 -4 0 -30 -44 -57
-97z"/>
<path d="M24761 50374 c-1 -7 15 -76 33 -155 387 -1611 556 -2326 556 -2353 0
-6 -4 -4 -10 4 -5 8 -11 12 -13 10 -3 -3 89 -372 204 -820 293 -1143 340
-1332 514 -2050 363 -1499 506 -2086 512 -2100 3 -8 5 -23 4 -32 -1 -10 3 -18
9 -18 7 0 10 -6 7 -14 -3 -7 -2 -17 2 -22 4 -5 16 -47 26 -93 11 -46 20 -80
22 -75 2 5 -31 160 -72 344 -42 184 -105 466 -140 625 -72 325 -293 1308 -302
1342 -5 23 -5 23 33 7 47 -20 41 -13 49 -49 l6 -30 -15 33 c-8 17 -19 32 -25
32 -5 0 -16 3 -25 6 -12 5 -13 0 -6 -28 4 -18 20 -85 35 -148 14 -63 28 -122
31 -131 3 -11 13 -14 34 -11 17 2 33 8 36 13 6 10 -8 102 -61 389 -18 102 -35
199 -38 215 -3 17 -70 386 -150 820 -80 435 -148 804 -151 820 -30 180 -129
705 -136 721 -5 14 -21 24 -43 28 -42 8 -115 69 -133 113 -8 18 -14 59 -14 91
0 47 6 67 30 105 16 26 33 47 38 47 4 0 17 9 29 19 l20 19 -82 449 c-46 247
-91 493 -100 548 -21 115 -17 95 -84 460 -67 370 -68 374 -92 495 -11 57 -21
105 -22 106 -1 0 -92 -19 -202 -42 -110 -24 -205 -43 -210 -44 -6 0 -31 82
-57 183 -25 100 -46 177 -47 171z"/>
<path d="M33476 50193 c-21 -87 -42 -162 -46 -166 -4 -4 -94 11 -201 33 -107
23 -200 42 -208 43 -11 2 -53 -211 -192 -968 -98 -533 -183 -1006 -189 -1050
-7 -44 -16 -93 -20 -110 -5 -16 -82 -426 -170 -910 -89 -484 -203 -1112 -255
-1395 -52 -283 -119 -652 -150 -819 l-55 -304 36 -31 c43 -38 55 -95 30 -144
-16 -31 -61 -62 -90 -62 -8 0 -17 -8 -20 -17 -6 -18 -190 -1020 -241 -1308
-14 -82 -42 -229 -61 -325 -37 -189 -39 -210 -24 -210 6 0 10 8 10 18 0 9 27
127 60 262 33 135 63 259 66 275 3 17 23 100 44 185 21 85 120 493 220 905
100 413 196 811 215 885 18 74 70 288 116 475 84 351 99 407 418 1656 105 411
191 752 191 758 0 7 -4 9 -10 6 -5 -3 -10 -16 -10 -27 0 -12 -3 -19 -6 -15 -3
3 -1 28 5 54 83 360 236 1010 391 1652 105 437 189 799 187 804 -1 4 -20 -63
-41 -150z"/>
<path d="M35071 49808 c-4 -13 -50 -182 -101 -376 -63 -238 -90 -356 -83 -363
7 -7 22 38 48 138 53 209 153 587 161 607 3 9 1 16 -5 16 -6 0 -15 -10 -20
-22z"/>
<path d="M39323 49160 c-765 -1543 -807 -1630 -791 -1646 12 -13 84 129 562
1111 301 620 545 1134 543 1143 -2 9 -143 -264 -314 -608z"/>
<path d="M29253 48310 c-5 -19 -14 -20 -124 -20 -89 0 -119 -3 -119 -12 0 -7
13 -339 30 -738 16 -399 32 -792 35 -875 3 -82 7 -179 10 -215 2 -36 7 -157
10 -270 3 -113 8 -218 10 -235 2 -16 7 -127 10 -245 3 -118 8 -224 10 -235 2
-12 7 -66 10 -120 13 -206 17 -97 13 310 -2 231 -3 369 -1 308 2 -62 7 -113
12 -113 4 0 11 73 15 163 13 333 26 606 36 747 6 80 17 302 25 495 l15 349
-29 31 c-38 40 -51 67 -51 105 0 41 23 84 58 108 l27 20 4 179 c2 98 4 202 6
231 2 53 -3 68 -12 32z"/>
<path d="M13646 47761 c-77 -70 -141 -132 -143 -138 -4 -10 2548 -2555 2555
-2548 3 3 -270 348 -288 365 -3 3 -439 543 -969 1200 -530 657 -975 1207 -990
1222 l-26 26 -139 -127z"/>
<path d="M43800 47029 c-382 -474 -774 -959 -870 -1078 -96 -120 -292 -362
-435 -539 -143 -177 -262 -328 -264 -335 -5 -15 -190 -198 1290 1277 l1276
1272 -144 130 c-80 71 -148 130 -151 131 -4 2 -320 -385 -702 -858z"/>
<path d="M41005 46790 c-86 -110 -159 -200 -162 -200 -3 0 0 6 6 14 14 16 25
6 -194 165 -114 83 -142 99 -150 87 -5 -8 -64 -93 -130 -190 -66 -97 -364
-533 -662 -968 l-541 -792 49 -44 c62 -55 84 -118 68 -192 -12 -56 -62 -120
-113 -144 -65 -30 -163 -17 -217 31 -15 13 -49 -33 -350 -474 -183 -268 -351
-515 -374 -548 -124 -180 -202 -294 -510 -745 -457 -670 -481 -704 -540 -790
-77 -111 -435 -636 -714 -1045 -134 -198 -269 -393 -299 -433 -29 -41 -50 -77
-47 -80 4 -4 17 7 30 23 13 17 221 287 462 600 242 314 447 582 456 596 14 21
15 32 6 56 -7 22 -7 43 0 71 21 75 73 119 153 127 23 2 47 10 53 17 15 16 751
974 856 1113 42 55 129 171 195 258 65 87 127 168 138 180 l18 22 -14 -25 c-9
-14 -86 -132 -172 -262 -86 -130 -156 -240 -156 -243 0 -3 5 -3 12 1 7 4 8 3
4 -5 -4 -6 -11 -9 -15 -6 -5 2 -20 -12 -33 -33 -53 -81 -60 -92 -56 -92 3 0
22 25 42 56 26 39 41 53 48 46 7 -7 4 -21 -12 -44 -17 -25 -12 -22 19 12 42
46 55 73 24 49 -16 -13 -17 -12 -4 3 7 10 17 16 21 13 10 -6 88 90 101 123 5
12 11 22 13 22 3 0 2 -8 -1 -17 -9 -26 28 21 729 907 351 443 638 810 638 815
0 6 -21 25 -47 42 -38 27 -49 30 -62 20 -20 -15 -8 1 244 333 176 231 1236
1615 1327 1733 17 20 28 37 25 37 -3 0 -75 -90 -162 -200z"/>
<path d="M17236 46833 c174 -228 186 -243 197 -236 6 3 7 1 3 -5 -4 -6 177
-251 422 -569 765 -996 919 -1202 867 -1151 l-28 26 -48 -36 c-30 -22 -45 -40
-40 -46 171 -221 1829 -2316 1842 -2327 10 -9 16 -19 14 -23 -3 -3 -2 -4 1 -1
4 2 15 -6 26 -18 11 -12 -14 28 -54 88 -256 379 -649 968 -640 960 11 -10 58
-71 221 -286 79 -104 1194 -1549 1344 -1742 95 -122 81 -98 -107 179 -82 120
-269 395 -414 609 -146 215 -303 446 -350 515 -47 69 -78 118 -70 110 13 -13
399 -566 1076 -1545 118 -170 219 -313 223 -318 5 -4 7 -4 4 -1 -3 4 0 13 5
19 7 8 7 21 1 36 -5 13 -156 238 -334 499 -179 261 -354 517 -389 568 -35 51
-92 135 -128 187 -74 107 -732 1070 -828 1212 l-63 93 -29 -15 c-38 -20 -113
-19 -157 1 -97 47 -124 186 -51 269 16 19 28 41 25 48 -4 10 -879 1294 -1120
1642 -42 61 -111 162 -154 225 -43 63 -225 330 -404 592 l-327 478 -153 -111
c-85 -62 -163 -120 -175 -131 -21 -19 -21 -19 -158 157 -75 96 -139 175 -142
175 -3 0 39 -57 92 -127z"/>
<path d="M21985 46789 c-22 -10 -73 -34 -113 -52 l-73 -32 456 -920 c660
-1331 757 -1526 761 -1522 2 2 -5 23 -17 46 -50 105 -178 405 -174 410 3 2 5
-2 5 -10 0 -11 2 -11 8 -1 6 8 32 -38 75 -130 73 -156 86 -172 33 -38 -19 47
-97 245 -174 440 -209 529 -562 1419 -650 1637 -42 106 -81 192 -87 192 -5 0
-28 -9 -50 -20z"/>
<path d="M36150 46581 l-92 -231 16 -40 c26 -65 1 -128 -63 -158 -35 -17 -39
-24 -188 -397 -83 -209 -149 -383 -146 -387 2 -5 16 -8 31 -8 15 0 42 -9 60
-20 l33 -20 97 202 c53 112 207 424 343 693 l247 491 -106 47 c-59 25 -114 49
-123 52 -13 5 -34 -37 -109 -224z"/>
<path d="M35515 44983 c-10 -26 -107 -273 -216 -547 -171 -429 -207 -528 -185
-505 2 2 37 74 77 159 40 85 76 157 79 160 8 6 118 268 160 383 18 48 34 86
36 84 5 -5 -30 -107 -46 -137 -7 -13 -8 -20 -2 -16 11 7 212 399 212 413 0 4
-19 17 -43 27 -23 11 -45 21 -48 23 -3 2 -14 -18 -24 -44z"/>
<path d="M51819 44926 c-52 -35 -532 -363 -1068 -728 -610 -416 -976 -671
-982 -685 -10 -27 -48 -53 -74 -51 -12 1 -430 -277 -1018 -678 -977 -665 -998
-680 -1008 -719 -16 -59 -92 -129 -158 -145 -28 -7 -63 -9 -76 -6 -22 6 -148
-77 -833 -544 -568 -387 -813 -560 -827 -583 -15 -23 -30 -33 -55 -37 -19 -3
-43 -10 -53 -16 -18 -10 -17 -12 3 -47 25 -42 27 -43 58 -21 13 9 25 14 27 12
5 -5 -212 -141 -1043 -654 -548 -339 -606 -377 -623 -412 -31 -62 -119 -112
-175 -98 -16 4 -33 0 -52 -13 -45 -33 -923 -573 -977 -602 -57 -30 -346 -207
-359 -219 -5 -5 1 -6 13 -3 27 7 51 -13 51 -41 0 -28 -18 -46 -46 -46 -30 0
-48 24 -40 56 4 14 3 24 -1 21 -42 -25 -1151 -708 -1221 -751 l-92 -58 25 -30
c14 -16 28 -40 31 -53 l6 -24 62 42 c33 23 68 42 76 43 8 1 78 35 155 76 394
211 1497 804 1543 830 30 16 95 50 145 75 88 44 412 217 507 271 103 58 8 -5
-260 -173 -157 -99 -429 -271 -605 -384 -176 -112 -330 -209 -342 -215 -13 -6
-23 -14 -23 -18 0 -5 -7 -8 -15 -8 -8 0 -15 -4 -15 -10 0 -5 -5 -10 -11 -10
-16 0 -459 -305 -459 -317 0 -2 12 4 28 15 15 11 45 27 66 36 83 35 2468 1291
2473 1302 2 7 -13 41 -34 76 -22 35 -42 72 -46 81 -6 16 -10 16 -49 -4 -24
-12 -38 -17 -33 -12 19 18 496 280 1645 903 267 144 490 267 495 273 6 5 -56
-25 -136 -67 l-147 -76 -105 182 c-58 101 -103 186 -99 190 4 4 113 73 242
153 129 81 287 184 350 228 171 120 3276 2331 4540 3232 217 155 465 330 550
390 174 121 176 122 168 130 -3 3 -48 -23 -99 -59z"/>
<path d="M43761 44169 c-348 -344 -413 -413 -404 -427 5 -10 15 -17 21 -17 6
0 109 104 228 230 120 127 300 316 401 422 100 105 183 194 183 197 0 3 -3 6
-7 6 -5 -1 -194 -186 -422 -411z"/>
<path d="M46908 43622 c-472 -384 -866 -705 -875 -715 -16 -16 -15 -17 32 -17
34 0 66 -8 101 -26 l52 -26 891 577 c490 317 891 579 891 582 0 6 -230 323
-233 322 -1 0 -388 -314 -859 -697z"/>
<path d="M10404 44160 c-60 -83 -109 -156 -109 -162 0 -14 2493 -1632 2515
-1633 14 0 98 -73 92 -80 -4 -5 -2 -5 4 -2 6 4 20 -1 30 -9 10 -9 13 -12 5 -8
-9 4 -12 3 -7 -4 4 -6 13 -9 20 -6 8 3 17 0 22 -7 5 -8 3 -10 -7 -4 -12 8 -12
6 0 -8 12 -15 31 -15 31 -1 0 3 -5 2 -12 -2 -7 -4 -8 -3 -4 5 6 9 11 9 22 0
17 -14 19 -33 2 -23 -33 18 23 -28 207 -170 110 -84 204 -151 208 -149 14 8
-11 29 -208 169 -106 76 -191 142 -189 146 3 4 69 -35 146 -87 78 -52 144 -92
147 -89 4 4 -9 18 -28 33 -19 14 -373 302 -787 639 -415 336 -758 612 -763
612 -5 0 -22 -7 -37 -15 -37 -19 -117 -19 -154 0 -16 8 -42 32 -57 52 -23 30
-28 46 -28 92 0 31 4 63 8 72 7 13 -87 94 -467 403 -261 212 -479 386 -485
386 -5 0 -58 -68 -117 -150z"/>
<path d="M45505 43424 c-33 -31 -192 -171 -353 -312 -161 -141 -288 -258 -282
-260 31 -11 78 26 307 240 137 128 284 264 326 302 71 64 89 87 70 86 -5 -1
-35 -26 -68 -56z"/>
<path d="M45495 42473 c-192 -157 -389 -317 -437 -355 -49 -39 -88 -75 -88
-80 0 -6 10 -3 23 5 12 9 208 136 435 283 l413 267 -7 42 c-3 23 -1 59 5 80 6
22 9 40 8 41 -1 1 -159 -126 -352 -283z"/>
<path d="M44556 42590 c-61 -53 -112 -102 -114 -109 -4 -13 16 -41 30 -41 5 0
49 38 97 85 69 67 90 94 96 121 3 20 5 37 3 39 -2 1 -52 -41 -112 -95z"/>
<path d="M41620 41898 c-673 -658 -1256 -1237 -1153 -1145 68 61 104 65 48 5
-24 -25 1 -8 63 43 57 46 121 97 143 112 36 26 54 47 27 31 -7 -4 -2 5 11 19
14 15 27 27 29 27 3 0 -3 -10 -14 -21 -10 -12 -14 -20 -7 -18 11 3 440 357
1427 1177 122 101 223 188 224 193 2 6 -33 51 -79 100 -45 50 -78 94 -73 97
12 9 48 52 43 51 -2 0 -312 -302 -689 -671z"/>
<path d="M15950 42423 c-41 -46 -76 -90 -78 -97 -2 -10 890 -758 1068 -896 25
-19 185 -150 355 -290 171 -141 360 -295 420 -344 l110 -89 -130 127 -130 128
137 -122 c76 -67 136 -125 133 -130 -2 -4 8 -18 23 -31 l27 -24 -20 24 c-42
50 8 12 142 -109 l138 -125 -104 112 c-57 62 -107 114 -112 115 -4 2 -52 46
-106 99 -54 53 -107 99 -118 103 -31 10 -60 38 -91 88 -31 48 -1561 1548
-1579 1547 -5 0 -44 -39 -85 -86z"/>
<path d="M55575 40818 c-138 -60 -2041 -888 -4230 -1840 -2189 -951 -3983
-1733 -3988 -1737 -11 -11 23 -103 37 -98 6 3 205 91 441 197 237 106 1659
741 3160 1412 1502 670 2748 1227 2770 1238 68 31 1276 569 1350 602 39 16 77
34 86 38 9 4 150 68 315 140 164 73 303 136 308 141 28 26 -22 7 -249 -93z"/>
<path d="M12198 40793 c-19 -32 -67 -115 -107 -185 -41 -71 -77 -128 -80 -128
-4 0 -11 4 -16 9 -15 12 -325 173 -325 167 0 -2 42 -27 93 -54 50 -27 166 -90
257 -139 1407 -764 1796 -977 1814 -994 5 -4 0 -5 -12 -2 -21 5 -30 -5 -95
-119 l-27 -46 238 -125 c1923 -1009 2515 -1317 2521 -1311 3 4 1 9 -6 11 -12
4 -1867 1177 -1900 1201 -22 16 34 -14 364 -192 139 -75 256 -136 259 -136 10
0 763 -404 924 -495 249 -141 299 -168 1514 -825 653 -352 1198 -647 1211
-656 15 -9 25 -11 29 -5 4 6 -8 18 -26 27 -18 9 -418 254 -888 543 -470 290
-875 536 -900 548 -25 12 -59 33 -75 47 -23 19 -2377 1474 -3100 1916 -60 36
-447 275 -860 529 -412 255 -755 465 -762 468 -6 2 -26 -22 -45 -54z"/>
<path d="M49095 39568 c-621 -318 -1303 -667 -1515 -776 -212 -108 -427 -217
-477 -242 -51 -25 -93 -49 -93 -54 0 -11 -15 -17 430 154 217 83 967 370 1665
637 699 267 1273 488 1278 492 7 7 -38 115 -120 286 l-38 81 -1130 -578z"/>
<path d="M8041 40101 c-33 -63 -141 -311 -141 -321 0 -6 4 -10 9 -10 5 0 751
-284 1658 -631 906 -346 1657 -631 1669 -633 11 -2 26 -6 32 -10 7 -4 12 -5
12 -2 0 3 -147 80 -327 170 -181 91 -325 165 -322 165 16 2 635 -310 649 -326
8 -10 46 -33 83 -50 59 -29 67 -31 67 -15 0 13 -107 70 -449 236 -282 137
-454 215 -463 210 -7 -4 -10 -3 -5 2 5 5 -115 70 -275 149 -156 77 -707 358
-1224 623 -518 265 -944 482 -948 482 -3 0 -15 -18 -25 -39z"/>
<path d="M40660 37532 c-303 -186 -305 -188 -302 -219 4 -42 -24 -59 -71 -42
-31 11 -40 6 -427 -231 -217 -133 -404 -251 -415 -262 -20 -20 -20 -20 5 -8
14 7 126 68 250 135 124 67 254 138 290 157 318 170 990 533 1008 545 18 11
21 17 12 28 -6 7 -19 29 -28 49 l-18 36 -304 -188z"/>
<path d="M9740 37272 c0 -4 28 -18 63 -31 34 -13 273 -107 530 -209 257 -101
471 -182 474 -179 17 17 -19 38 -148 86 -79 30 -315 118 -523 197 -209 79
-383 144 -388 144 -4 0 -8 -3 -8 -8z"/>
<path d="M12295 36138 c-26 -67 -73 -234 -67 -239 4 -4 338 -99 742 -212 1087
-305 1132 -317 1166 -322 40 -5 181 -44 384 -106 294 -90 326 -99 338 -99 21
0 -53 59 -99 79 -24 10 -582 218 -1239 461 -657 244 -1201 445 -1207 447 -7 3
-15 -1 -18 -9z"/>
<path d="M44584 35632 c-1220 -453 -1504 -563 -1419 -547 41 7 2890 808 2897
814 9 8 -67 245 -79 248 -4 1 -634 -231 -1399 -515z"/>
<path d="M6510 35493 c-7 -32 -25 -118 -41 -192 -16 -74 -27 -136 -25 -138 6
-6 381 -66 2956 -469 228 -35 454 -71 503 -79 103 -18 107 -18 107 -5 0 6 -6
10 -13 10 -7 0 -171 42 -363 94 -1368 369 -3063 826 -3086 831 -25 6 -27 5
-38 -52z"/>
<path d="M50877 35315 c-472 -128 -860 -235 -864 -239 -3 -3 3 -6 15 -6 25 0
62 -44 62 -75 0 -37 -37 -75 -74 -75 -68 0 -102 57 -67 115 l19 33 -106 -28
c-1026 -274 -1582 -427 -1582 -434 0 -5 17 -6 38 -2 20 3 755 119 1632 257
1801 282 1891 297 1895 301 2 2 -15 90 -37 196 -33 153 -45 192 -57 191 -9 -1
-402 -106 -874 -234z"/>
<path d="M54795 35260 c-137 -32 -950 -214 -1805 -405 -855 -191 -1559 -351
-1564 -356 -4 -4 -2 -16 5 -26 14 -19 36 -14 644 129 347 81 736 172 865 202
129 31 397 93 595 140 637 150 954 224 1230 286 318 72 305 69 305 81 0 12 6
13 -275 -51z"/>
<path d="M53435 34703 c-187 -41 -1417 -305 -2733 -587 -1316 -282 -2395 -516
-2398 -519 -4 -3 -4 -17 0 -30 6 -24 8 -24 48 -15 352 79 4687 1042 4993 1108
478 104 455 98 455 111 0 12 15 15 -365 -68z"/>
<path d="M49790 34140 c-756 -170 -1408 -316 -1447 -325 -69 -15 -73 -18 -72
-43 1 -67 -108 -88 1459 279 795 186 1452 343 1460 347 8 5 16 19 18 31 3 16
-2 21 -20 20 -13 -1 -642 -140 -1398 -309z"/>
<path d="M47610 32969 c-564 -76 -1026 -138 -1026 -139 -1 0 -4 -22 -6 -50
-15 -155 -207 -205 -301 -79 -10 15 -22 40 -26 56 l-6 29 -1515 -203 c-833
-112 -1522 -206 -1530 -209 -13 -4 -12 -7 3 -15 26 -15 39 -56 26 -81 -22 -41
-4 -42 293 -20 156 12 874 67 1597 122 723 55 1316 98 1319 95 3 -3 -6 -5 -20
-5 -13 0 -578 -81 -1254 -180 -1133 -167 -1432 -210 -1441 -210 -2 0 -3 -5 -3
-11 0 -7 16 -9 48 -5 40 5 2992 196 3031 196 11 0 12 16 7 88 -10 124 -16 150
-35 154 -9 2 49 9 129 16 80 7 192 17 250 22 99 9 317 27 1040 85 168 14 402
32 520 41 118 8 224 20 235 25 l20 9 -20 -4 c-11 -2 -66 -7 -122 -11 l-102 -7
-5 34 c-3 18 -13 105 -21 193 -19 198 -21 205 -43 204 -9 -1 -478 -63 -1042
-140z"/>
<path d="M9325 33055 c-20 -127 74 -262 206 -296 48 -13 50 -14 43 -43 -3 -17
-8 -32 -9 -34 -2 -2 -55 0 -119 5 -63 5 -112 6 -108 2 4 -3 86 -12 182 -18 96
-7 191 -14 210 -17 19 -2 154 -13 300 -24 146 -11 288 -22 315 -25 74 -7 157
-13 375 -30 107 -8 215 -17 240 -20 25 -2 79 -7 120 -10 111 -9 301 -26 330
-30 14 -2 47 -4 74 -4 45 -1 48 -2 31 -15 -15 -11 -21 -36 -31 -122 -6 -60
-11 -110 -10 -111 1 -1 678 -44 1506 -97 828 -53 1521 -98 1540 -100 19 -1 27
-1 17 1 -9 3 -14 9 -11 15 4 6 -1 8 -13 4 -10 -3 -69 3 -131 14 -250 45 -651
102 -712 101 -40 -1 -90 6 -130 19 -56 18 -1610 250 -1671 250 -12 0 -20 2
-17 5 3 3 189 -8 414 -24 225 -16 549 -40 719 -51 171 -12 340 -24 378 -27
l67 -6 0 28 c0 51 24 108 62 148 21 22 37 41 36 42 -2 2 -817 111 -1813 244
-995 133 -1824 244 -1841 247 l-31 6 0 -54 c0 -75 -19 -124 -67 -176 -54 -59
-114 -86 -192 -85 -150 1 -272 141 -249 288 3 25 4 45 1 45 -3 0 -8 -20 -11
-45z"/>
<path d="M13812 32493 c25 -49 29 -66 24 -108 l-6 -51 133 -12 c164 -15 2449
-190 2572 -198 49 -2 87 -3 84 0 -7 7 -452 100 -569 120 -52 8 -142 22 -200
30 -151 22 -2046 276 -2058 276 -5 0 4 -26 20 -57z"/>
<path d="M43040 32355 c-47 -8 -114 -16 -149 -20 -102 -10 -846 -169 -863
-184 -8 -7 91 0 641 42 l283 22 17 45 c20 54 68 90 120 90 20 0 43 5 51 10 19
12 15 12 -100 -5z"/>
<path d="M16507 32180 c11 -10 392 -79 468 -85 33 -3 125 -12 204 -21 127 -14
164 -14 150 0 -2 3 -150 23 -329 46 -179 22 -365 46 -413 54 -48 7 -84 10 -80
6z"/>
<path d="M4165 31110 c-4 -6 -5 -13 -4 -14 2 -2 101 -8 219 -14 235 -13 5193
-337 5303 -347 l67 -6 0 50 c0 50 0 51 -31 51 -34 0 -4994 253 -5284 270 -99
6 -199 13 -222 16 -25 3 -44 1 -48 -6z"/>
<path d="M5970 30540 l0 -200 36 0 c38 0 3313 176 3477 186 53 4 97 10 97 14
0 6 -562 36 -685 37 -27 0 -66 3 -85 7 -25 4 -2776 156 -2834 156 -3 0 -6 -90
-6 -200z"/>
<path d="M52190 30734 c-19 -2 -809 -45 -1755 -95 -946 -51 -1722 -94 -1724
-95 -2 -2 -2 -6 0 -9 4 -4 3494 -195 3567 -195 l32 0 0 200 0 200 -42 -2 c-24
-1 -59 -3 -78 -4z"/>
<path d="M43722 29010 c3 -10 64 -22 199 -41 107 -16 363 -53 569 -83 206 -30
654 -96 995 -146 341 -50 773 -113 959 -141 186 -27 340 -48 342 -47 2 3 32
262 30 264 -1 0 -691 44 -1535 98 -844 54 -1541 100 -1549 104 -9 3 -13 0 -10
-8z"/>
<path d="M14478 29005 c-3 -3 -52 -8 -109 -10 -272 -11 -2370 -141 -2436 -151
-31 -5 -33 -7 -33 -46 0 -55 -33 -106 -84 -129 -52 -23 -71 -23 -123 1 -49 22
-83 70 -83 118 l0 32 -70 0 -71 0 5 -32 c3 -18 10 -78 16 -132 6 -55 12 -101
13 -103 4 -3 2828 409 2932 428 33 6 78 14 100 19 l40 7 -46 2 c-25 0 -48 -1
-51 -4z"/>
<path d="M9580 28929 c-473 -19 -6593 -229 -6847 -235 -150 -4 -273 -11 -273
-15 0 -13 38 -14 270 -7 238 7 7056 198 7078 198 6 0 12 9 12 19 0 24 -10 51
-19 49 -3 0 -103 -5 -221 -9z"/>
<path d="M17744 27132 c3 -5 -23 -14 -57 -20 -34 -7 -143 -37 -242 -67 -99
-31 -211 -64 -250 -74 -155 -42 -2267 -664 -2360 -696 -107 -37 -1755 -519
-1908 -559 -105 -28 -268 -75 -1592 -464 -522 -154 -951 -284 -952 -289 -2 -4
26 -97 61 -206 56 -174 62 -199 47 -206 -9 -4 -44 -18 -79 -31 -34 -12 -61
-24 -59 -26 2 -3 336 113 743 257 849 299 1175 411 1182 405 2 -3 -8 -8 -22
-12 -15 -3 -25 -12 -23 -18 2 -6 17 -49 32 -96 15 -47 31 -89 35 -93 4 -5 624
219 1376 498 753 279 1406 521 1452 537 45 16 82 34 82 40 0 6 -8 7 -17 3 -10
-4 -418 -119 -908 -256 -489 -138 -1018 -286 -1174 -330 -156 -44 -285 -78
-287 -76 -2 2 405 149 904 326 499 178 912 327 918 332 6 5 256 97 555 205
299 107 546 198 549 201 3 4 -4 3 -15 -1 -53 -19 -73 -18 -80 3 -10 33 -25 25
-18 -11 4 -22 3 -29 -5 -24 -7 4 -12 16 -12 27 0 24 2 24 -136 -7 -64 -14
-118 -23 -121 -20 -4 3 -2 6 4 6 5 0 207 45 449 99 452 102 545 129 954 276
118 42 244 87 280 100 391 137 672 239 705 254 38 19 39 20 12 20 -16 1 -26
-3 -23 -7z"/>
<path d="M41455 26788 c44 -17 154 -56 245 -88 389 -135 3804 -1359 3794
-1360 -6 0 -30 6 -55 14 -24 8 -111 33 -194 56 -169 47 -496 139 -625 175 -47
13 -159 45 -250 70 -91 26 -235 66 -320 90 -85 24 -222 62 -305 85 -294 82
-630 178 -649 186 -13 5 -17 3 -15 -5 4 -11 116 -55 564 -218 83 -30 202 -71
265 -92 134 -44 473 -171 480 -181 12 -15 1592 -592 1599 -584 5 5 22 51 39
101 28 85 29 94 14 103 -62 36 157 -39 1277 -434 398 -141 726 -255 728 -253
1 2 -57 25 -129 52 -73 26 -134 49 -135 50 -1 0 27 92 63 204 36 112 63 205
60 208 -3 3 -270 83 -593 178 -323 95 -1533 451 -2688 790 -1155 339 -2140
628 -2190 641 -49 13 -99 28 -110 34 -36 17 -910 211 -941 209 -5 0 27 -14 71
-31z m3388 -958 c67 -53 28 -170 -57 -170 -62 0 -115 62 -101 117 17 68 103
96 158 53z"/>
<path d="M9975 26474 c-5 -2 -802 -128 -1770 -279 -967 -152 -1761 -277 -1762
-279 -2 -2 15 -91 38 -198 l42 -195 46 13 c25 7 597 162 1271 343 2405 647
2170 583 2170 593 0 8 -17 9 -35 2z"/>
<path d="M48280 26472 c0 -5 19 -15 43 -21 23 -7 249 -68 502 -136 253 -68
455 -124 449 -124 -6 -1 -270 46 -587 104 -316 58 -579 105 -584 105 -5 0 -14
-22 -19 -50 -6 -27 -9 -50 -6 -50 2 0 360 -47 795 -106 692 -92 810 -110 937
-144 80 -22 548 -148 1040 -280 492 -132 900 -242 906 -244 7 -3 26 70 52 192
23 108 40 197 39 198 -1 1 -794 126 -1762 278 -968 152 -1770 279 -1782 282
-13 4 -23 2 -23 -4z"/>
<path d="M48053 26213 c-6 -27 -11 -48 -10 -49 5 -1 2226 -378 2255 -382 17
-2 32 0 32 5 0 5 -53 19 -117 32 -65 12 -569 116 -1121 232 -552 115 -1009
209 -1016 209 -7 0 -18 -21 -23 -47z"/>
<path d="M8040 24755 c-1328 -299 -2599 -584 -2823 -634 -225 -49 -411 -92
-414 -95 -17 -17 25 -11 263 40 142 30 903 189 1689 354 787 164 1948 407
2581 539 634 133 1154 241 1157 241 3 0 -2 23 -11 50 -9 28 -18 50 -21 49 -3
0 -1093 -245 -2421 -544z"/>
<path d="M41830 23210 c0 -5 10 -15 23 -21 25 -14 2576 -1627 2593 -1640 11
-9 138 203 132 222 -4 11 34 -9 -1573 833 -627 329 -1144 602 -1149 607 -13
12 -26 11 -26 -1z"/>
<path d="M15391 22662 c-622 -326 -624 -327 -583 -335 24 -5 57 -23 84 -46
l43 -39 520 330 c286 181 531 337 545 346 21 13 25 23 20 44 l-5 27 -624 -327z"/>
<path d="M20284 22857 c-44 -32 -2092 -1774 -2136 -1815 -20 -19 -35 -39 -32
-43 2 -4 -1 -11 -7 -15 -8 -4 -9 -3 -5 4 11 19 -9 14 -27 -6 -10 -10 -14 -22
-10 -26 4 -4 0 -4 -9 -1 -11 4 -20 0 -27 -13 -6 -11 -54 -54 -108 -96 -54 -41
-120 -95 -148 -119 -27 -24 -682 -581 -1455 -1237 -773 -656 -1418 -1205
-1433 -1220 l-29 -27 21 -34 c26 -42 27 -85 2 -125 -38 -62 -128 -70 -174 -15
l-24 29 -146 -125 c-81 -68 -147 -128 -147 -133 0 -12 269 -310 279 -310 4 0
12 5 19 12 7 7 12 10 12 7 0 -3 -103 -106 -230 -227 -126 -122 -226 -222 -223
-222 4 0 54 46 112 103 59 56 187 179 286 272 99 93 225 213 280 266 252 241
936 885 1025 964 48 43 50 44 17 9 l-38 -41 55 -59 55 -59 243 241 c134 132
542 533 908 889 366 357 757 739 868 848 112 109 202 201 199 203 -4 4 -252
-200 -1032 -849 -132 -110 -229 -187 -215 -172 14 15 184 178 378 363 193 184
352 341 352 347 0 7 -7 18 -15 25 -18 15 -19 78 -2 101 32 42 81 49 121 18 14
-11 30 -19 35 -17 10 3 1161 1099 1161 1105 0 2 -6 1 -12 -4 -14 -8 -635 -459
-655 -475 -7 -6 -13 -8 -13 -5 0 3 178 137 395 297 218 161 435 329 483 374
110 103 509 482 627 595 158 152 328 314 393 375 65 60 78 83 26 43z"/>
<path d="M37970 22875 c0 -4 41 -45 92 -93 346 -327 3145 -2996 3193 -3045 57
-57 56 -56 -35 20 -209 174 -1144 949 -1167 967 -14 11 -24 15 -22 9 2 -6 348
-348 769 -759 421 -411 920 -898 1109 -1083 l343 -336 54 60 53 60 -32 35
c-35 39 -2 9 248 -225 181 -170 388 -365 735 -695 709 -673 795 -753 516 -476
-127 125 -224 223 -216 218 13 -9 34 9 112 96 52 59 116 130 142 158 l46 52
-1216 1033 c-924 786 -1225 1036 -1255 1045 -60 18 -89 41 -110 89 -17 38
-163 166 -1087 951 -587 498 -1082 919 -1099 935 -18 16 -38 29 -44 29 -7 0
-33 22 -58 48 -25 26 -199 178 -386 337 -187 159 -415 353 -507 432 -157 135
-178 151 -178 138z"/>
<path d="M11210 22566 c-30 -13 -784 -301 -1675 -641 -891 -340 -1624 -622
-1629 -626 -11 -9 146 -365 160 -362 7 1 1418 721 2309 1178 121 62 369 188
550 280 182 92 334 172 339 176 21 19 -2 16 -54 -5z"/>
<path d="M47010 22584 c0 -5 192 -107 428 -227 235 -119 517 -264 627 -320
505 -261 2141 -1096 2154 -1099 9 -2 39 55 93 175 44 98 78 181 75 183 -2 3
-755 292 -1673 643 -918 351 -1677 642 -1686 646 -10 4 -18 3 -18 -1z"/>
<path d="M14169 22021 c-240 -126 -444 -233 -453 -238 -13 -7 -7 -23 45 -113
33 -58 64 -109 69 -113 4 -5 184 102 399 238 l390 247 -14 29 c-19 36 -19 112
0 149 9 17 12 30 8 30 -5 0 -204 -103 -444 -229z"/>
<path d="M11350 21306 c-316 -145 -1758 -804 -3205 -1465 -1447 -662 -2641
-1209 -2653 -1218 -13 -8 -22 -17 -19 -19 3 -3 465 199 1028 449 1121 497
2928 1299 4478 1986 547 243 997 444 999 446 8 8 -30 85 -42 85 -6 0 -270
-119 -586 -264z"/>
<path d="M46220 21335 c-7 -14 -11 -27 -8 -30 8 -8 1359 -665 1368 -665 11 0
21 43 12 51 -6 6 -1351 669 -1356 669 -2 0 -9 -11 -16 -25z"/>
<path d="M47902 20509 c-7 -12 -12 -22 -10 -24 2 -2 50 -26 108 -53 58 -27
202 -97 320 -155 323 -158 823 -401 3295 -1604 1243 -606 2509 -1223 2814
-1372 485 -238 594 -287 555 -252 -5 4 -315 158 -689 341 -620 303 -2071 1018
-3290 1620 -1371 677 -3083 1520 -3087 1520 -2 0 -9 -9 -16 -21z"/>
<path d="M24256 19878 c-23 -51 -516 -1079 -1094 -2284 -579 -1205 -1052
-2203 -1052 -2217 0 -15 -13 -41 -28 -59 -27 -30 -1149 -2355 -1141 -2362 10
-9 376 -168 386 -169 9 0 8 -10 -3 -36 -36 -84 -54 -134 -51 -137 2 -2 88 199
192 448 396 955 545 1304 530 1242 -4 -15 1 -24 21 -33 15 -6 27 -10 29 -9 1
2 30 75 64 163 61 156 182 461 506 1275 87 217 182 458 212 534 29 77 60 154
67 170 8 17 76 186 151 376 75 190 139 351 142 358 3 6 1 12 -4 12 -5 0 -20
-22 -33 -50 -13 -27 -25 -48 -27 -46 -2 2 104 266 236 587 212 516 238 585
223 593 -51 28 -33 86 27 86 19 0 31 7 39 23 6 12 72 173 148 357 75 184 144
353 154 375 10 22 81 195 158 385 78 190 157 382 176 428 20 45 31 82 25 82
-5 0 -29 -42 -53 -92z"/>
<path d="M12785 19723 c-99 -58 -837 -488 -1640 -956 -803 -467 -1469 -858
-1481 -869 -11 -10 -25 -18 -31 -18 -6 0 -73 -37 -149 -81 -551 -323 -3714
-2164 -4119 -2397 -197 -113 -233 -137 -224 -146 4 -4 182 97 824 471 171 99
330 191 355 205 25 14 383 221 795 460 413 239 856 496 985 570 129 75 390
226 580 335 190 110 1232 712 2315 1338 1084 625 1976 1143 1983 1149 12 12 7
46 -7 46 -3 -1 -87 -48 -186 -107z"/>
<path d="M45239 19714 c-10 -12 -10 -17 2 -28 8 -7 754 -471 1659 -1031 905
-561 1831 -1135 2059 -1277 227 -142 417 -258 422 -258 20 0 7 16 -31 38 -51
29 -1313 820 -2860 1794 -668 420 -1220 767 -1226 771 -7 4 -17 0 -25 -9z"/>
<path d="M45129 19554 c-18 -30 -19 -38 -8 -48 8 -7 1015 -640 2239 -1406
1224 -767 2387 -1496 2586 -1622 198 -125 368 -230 377 -234 41 -15 10 15 -56
56 -118 72 -736 471 -2974 1918 -1167 755 -2126 1372 -2132 1372 -5 0 -19 -16
-32 -36z"/>
<path d="M34213 19470 c8 -19 134 -305 280 -635 191 -431 265 -607 262 -625
-3 -14 -2 -18 1 -10 4 8 15 27 26 42 l19 27 -227 473 c-124 260 -235 488 -246
506 -11 18 -42 80 -68 138 -46 100 -79 159 -47 84z"/>
<path d="M12280 18375 c-564 -365 -1062 -688 -1108 -717 -521 -335 -882 -572
-882 -579 0 -7 195 -283 221 -313 4 -5 40 18 81 51 1459 1186 2692 2185 2708
2195 20 13 27 28 13 28 -5 0 -469 -299 -1033 -665z"/>
<path d="M44980 19021 c14 -10 646 -524 1405 -1140 759 -617 1382 -1121 1385
-1121 6 1 224 300 228 314 1 6 -675 450 -1504 986 -1310 848 -1626 1049 -1514
961z"/>
<path d="M29130 18803 c-1 -76 -11 -491 -24 -923 -13 -432 -21 -791 -19 -797
3 -7 18 -13 33 -13 15 0 39 -9 53 -20 14 -11 27 -17 29 -13 2 5 -4 267 -13
583 -20 661 -33 1166 -31 1195 2 44 -10 125 -19 125 -5 0 -9 -60 -9 -137z"/>
<path d="M20504 18662 c-6 -9 -81 -105 -166 -212 -1488 -1878 -1741 -2202
-1727 -2211 8 -4 57 -39 109 -77 l94 -70 858 1290 c472 709 858 1291 858 1294
0 11 -16 2 -26 -14z"/>
<path d="M37757 18668 c48 -75 1707 -2565 1711 -2570 8 -7 204 134 210 150 3
9 -271 358 -1267 1617 -308 389 -567 717 -610 773 -18 23 -37 42 -42 42 -6 0
-6 -6 -2 -12z"/>
<path d="M13519 18289 c-200 -144 -764 -550 -1254 -902 -489 -352 -897 -646
-905 -654 -75 -76 215 118 1303 869 694 479 1266 875 1271 880 10 8 -21 59
-40 65 -6 2 -175 -114 -375 -258z"/>
<path d="M44211 18320 c-12 -17 -21 -35 -19 -40 2 -5 914 -688 2028 -1517
1114 -830 2073 -1546 2132 -1591 59 -45 109 -82 112 -82 22 0 -24 40 -251 212
-142 108 -1093 838 -2113 1622 -1020 784 -1858 1426 -1861 1426 -3 0 -15 -14
-28 -30z"/>
<path d="M34738 18168 c-8 -19 20 -98 34 -98 5 0 7 -4 4 -9 -6 -9 34 -114 41
-108 2 2 -6 25 -17 51 -25 60 -25 62 6 37 15 -12 32 -21 38 -21 11 0 260 -549
253 -557 -2 -1 -32 60 -67 138 -50 112 -66 139 -79 134 -9 -4 -20 -7 -25 -8
-4 -1 -29 47 -54 106 -24 59 -46 106 -48 104 -6 -5 106 -280 121 -297 16 -18
77 -152 72 -157 -2 -2 -21 33 -41 78 -20 45 -39 79 -42 76 -3 -3 1 -18 10 -34
13 -27 230 -557 242 -593 3 -8 -2 -1 -12 15 -9 17 -21 33 -27 36 -5 4 -6 12
-2 19 5 8 4 11 -3 6 -5 -3 -12 -3 -15 1 -11 21 9 -28 80 -199 77 -184 78 -186
121 -207 32 -16 48 -32 62 -64 24 -51 25 -77 5 -122 -12 -30 -12 -39 0 -63 13
-25 27 -60 29 -72 5 -26 30 -89 35 -86 3 2 7 -6 7 -17 2 -20 139 -370 493
-1262 73 -181 133 -337 134 -345 1 -8 36 -99 76 -202 l73 -186 28 10 c22 7 27
14 23 31 -2 12 5 2 17 -23 20 -41 257 -601 343 -808 26 -65 42 -88 69 -107 68
-46 95 -124 78 -220 -4 -18 219 -569 227 -562 1 2 -15 48 -37 102 -22 54 -40
99 -40 100 0 1 6 2 13 2 9 0 370 158 385 168 1 1 -36 83 -84 181 -47 98 -187
391 -311 649 -124 259 -254 529 -288 600 -34 72 -115 240 -180 375 -176 369
-174 365 -188 347 -40 -51 -133 -71 -201 -43 -47 20 -94 81 -102 133 -13 90
51 181 141 197 19 4 35 10 35 15 0 4 -66 145 -146 312 -80 167 -163 340 -184
384 -21 44 -77 161 -125 260 -111 232 -741 1547 -767 1602 -23 50 -30 55 -74
59 -62 6 -107 51 -122 121 -6 27 -10 33 -14 21z"/>
<path d="M29171 16873 c-19 -12 -47 -23 -62 -23 -25 0 -28 -4 -33 -42 -3 -24
-23 -697 -45 -1497 l-40 -1454 34 -38 c59 -66 56 -151 -8 -205 l-32 -27 -6
-181 c-4 -99 -10 -280 -13 -401 -21 -791 -46 -1674 -49 -1752 l-4 -93 230 0
230 0 -7 222 c-3 122 -8 223 -9 225 -2 1 -21 -2 -42 -8 -50 -14 -103 1 -151
43 -43 38 -56 68 -55 132 0 100 90 175 193 162 l51 -7 -6 163 c-4 90 -12 189
-18 220 -7 37 -8 75 -2 110 6 35 -6 539 -35 1513 -24 803 -43 1480 -43 1505 2
53 -39 1454 -42 1456 -1 0 -17 -10 -36 -23z"/>
<path d="M42829 16784 c-34 -35 -34 -36 -14 -52 25 -21 1995 -1836 2149 -1980
61 -57 112 -99 114 -94 1 5 -34 45 -80 88 -118 114 -1220 1188 -1710 1666
-229 225 -418 408 -420 408 -2 0 -20 -16 -39 -36z"/>
<path d="M32185 16178 c3 -13 30 -164 59 -335 48 -279 57 -316 80 -343 33 -40
41 -87 25 -149 -12 -49 -5 -95 171 -1131 l184 -1081 31 7 c16 4 75 17 130 28
l101 21 -258 1010 c-142 556 -304 1188 -359 1405 -56 217 -108 422 -116 455
-27 113 -34 135 -44 135 -5 0 -7 -10 -4 -22z"/>
<path d="M26022 15923 c-34 -131 -87 -332 -117 -448 -110 -417 -275 -1067
-275 -1081 0 -10 14 -14 53 -14 32 0 61 -6 75 -16 13 -9 25 -14 27 -13 10 11
239 1378 232 1385 -1 2 -29 -94 -61 -212 -33 -118 -61 -212 -63 -211 -2 2 42
192 97 422 56 229 99 419 97 421 -2 2 -32 -103 -65 -233z"/>
<path d="M14773 14731 c-700 -697 -1273 -1272 -1273 -1277 0 -11 276 -259 288
-259 10 0 41 37 297 355 104 129 225 280 270 335 44 55 139 172 210 260 491
608 743 920 1138 1410 111 138 206 255 212 261 5 7 24 29 40 50 17 21 47 57
68 80 36 41 44 54 30 53 -5 0 -581 -571 -1280 -1268z"/>
<path d="M42230 15991 c0 -6 4 -13 10 -16 5 -3 514 -631 1131 -1395 617 -765
1126 -1390 1131 -1390 11 0 288 249 288 259 0 9 -2544 2551 -2553 2551 -4 0
-7 -4 -7 -9z"/>
<path d="M16344 15656 c-108 -113 -165 -181 -183 -217 -21 -44 -35 -58 -74
-78 -39 -19 -358 -348 -1656 -1705 -884 -924 -1643 -1720 -1688 -1767 -69 -75
-266 -312 -286 -345 -10 -17 317 316 1008 1026 329 338 682 701 785 805 103
105 632 647 1175 1205 543 558 1024 1052 1068 1097 l81 82 -19 22 c-45 49 -43
50 -211 -125z"/>
<path d="M16735 15771 c-44 -5 -155 -61 -155 -78 0 -2 5 -1 11 3 6 4 -23 -27
-64 -67 -41 -41 -1096 -1172 -2343 -2514 -1247 -1342 -2293 -2467 -2324 -2500
-32 -33 -182 -195 -335 -360 -153 -165 -304 -327 -335 -360 -32 -33 -124 -132
-206 -221 -156 -167 -574 -615 -583 -624 -35 -33 -73 -81 -68 -86 3 -3 45 36
94 87 48 52 126 134 173 184 47 49 120 126 161 170 110 118 441 468 529 560
42 44 207 217 365 385 159 168 323 341 365 385 42 44 204 215 360 380 156 165
318 336 360 380 43 44 207 217 365 385 159 168 323 341 365 385 42 44 166 175
275 290 109 116 206 217 214 226 9 9 603 635 1319 1391 l1304 1376 1 54 c3 92
73 158 165 158 23 0 44 5 47 10 3 6 3 9 -2 9 -4 -1 -31 -5 -58 -8z"/>
<path d="M40772 14942 c54 -82 522 -691 532 -692 15 0 -2 28 -67 112 -35 46
-157 205 -271 353 -194 254 -270 342 -194 227z"/>
<path d="M25551 14098 c-118 -457 -228 -899 -223 -902 4 -2 56 -14 116 -26 60
-12 115 -24 122 -27 7 -2 15 4 18 14 6 21 156 905 156 922 0 8 -11 10 -33 6
-35 -7 -97 13 -128 41 -15 13 -17 11 -28 -28z"/>
<path d="M19299 13328 c-257 -413 -278 -448 -299 -488 -8 -16 -18 -30 -22 -30
-3 0 20 51 51 113 104 201 336 662 339 672 8 26 -51 -55 -133 -181 -49 -77
-343 -528 -653 -1004 -310 -476 -594 -911 -630 -967 -37 -57 -134 -206 -217
-333 -82 -126 -194 -297 -247 -379 -54 -82 -98 -153 -98 -158 0 -8 340 -207
345 -201 1 2 46 91 100 198 54 107 141 281 195 385 53 105 191 375 305 600
410 808 457 899 494 954 21 31 48 75 60 98 11 23 34 57 49 75 16 18 167 244
336 502 l308 470 -22 18 c-12 10 -25 18 -29 18 -4 0 -108 -163 -232 -362z"/>
<path d="M38920 13589 c0 -8 4 -19 9 -24 5 -6 242 -469 526 -1030 642 -1266
1096 -2159 1100 -2163 1 -1 79 41 173 95 104 60 170 103 167 110 -5 15 -518
805 -552 851 -15 20 -33 32 -47 32 -34 0 -49 24 -42 64 6 32 -32 93 -650 1042
-361 555 -663 1016 -670 1024 -12 12 -14 12 -14 -1z"/>
<path d="M35533 12220 c-22 -9 -22 -9 36 -177 95 -271 93 -266 124 -274 18 -5
27 -3 27 5 0 23 -147 450 -156 452 -5 2 -19 -1 -31 -6z"/>
<path d="M22602 11486 l-272 -701 6 -72 c9 -98 -11 -150 -86 -223 l-57 -55
-166 -430 c-92 -236 -168 -437 -169 -445 -2 -11 6 -15 27 -15 22 0 33 7 41 25
54 114 1034 2572 1029 2580 -3 5 -12 10 -18 10 -7 0 -24 6 -38 14 l-26 13
-271 -701z"/>
<path d="M22999 12104 c-6 -16 -85 -234 -176 -484 -91 -250 -179 -491 -195
-535 -16 -44 -33 -91 -38 -105 -7 -24 -35 -101 -139 -382 -219 -592 -421
-1170 -420 -1203 l1 -40 22 50 c13 28 72 174 131 325 59 151 145 370 190 485
46 116 145 368 220 560 75 193 170 433 210 535 225 571 305 777 305 783 0 8
-34 23 -75 33 -21 5 -27 1 -36 -22z"/>
<path d="M23082 11910 c-6 -14 -284 -734 -617 -1600 -554 -1437 -656 -1702
-671 -1736 -4 -8 63 -34 186 -74 106 -34 193 -60 195 -58 2 2 157 581 345
1288 188 707 395 1487 461 1734 107 400 135 524 101 446z"/>
<path d="M35183 11916 c3 -7 121 -447 262 -977 577 -2168 664 -2491 668 -2496
6 -5 358 107 371 118 6 5 -26 101 -79 236 -48 126 -107 278 -130 338 -24 61
-80 207 -125 325 -46 118 -95 247 -110 285 -15 39 -80 207 -145 375 -64 168
-133 346 -152 395 -19 50 -52 135 -73 190 -21 55 -60 154 -86 220 -25 66 -59
154 -75 195 -15 41 -41 109 -57 150 -16 41 -75 194 -131 340 -56 146 -106 277
-113 293 -6 15 -15 27 -20 27 -6 0 -8 -6 -5 -14z"/>
<path d="M33564 11649 l-31 -9 48 -212 c26 -117 82 -366 124 -553 42 -187 114
-511 161 -720 88 -393 373 -1666 448 -1999 41 -182 44 -190 70 -199 15 -5 30
-6 33 -3 4 3 -46 250 -110 549 -64 298 -191 893 -283 1322 -408 1913 -390
1830 -410 1832 -10 1 -33 -3 -50 -8z"/>
<path d="M35777 11532 c-9 -10 -17 -22 -17 -27 0 -4 261 -753 579 -1664 319
-911 631 -1803 693 -1983 65 -190 118 -328 125 -328 10 0 10 7 2 28 -18 45
-359 1046 -749 2197 -54 160 -159 470 -234 690 -75 220 -189 555 -253 745 -64
190 -119 348 -123 353 -3 4 -14 -1 -23 -11z"/>
<path d="M30000 11078 c0 -46 3 -120 7 -166 l6 -82 23 32 c12 18 31 41 42 50
18 15 20 27 19 130 l-2 113 -47 3 -48 3 0 -83z"/>
<path d="M27086 11058 c-2 -13 -129 -806 -281 -1763 -152 -957 -279 -1749
-281 -1761 -5 -20 2 -21 193 -42 109 -11 199 -19 201 -17 10 9 122 2309 117
2390 -3 52 -1 105 5 125 6 19 15 112 20 205 10 171 12 213 30 585 6 113 13
226 16 253 4 30 2 47 -5 47 -6 0 -13 -10 -15 -22z"/>
<path d="M31185 10993 c6 -90 160 -3109 172 -3376 l6 -148 36 5 c20 3 108 13
196 22 88 9 162 18 164 20 4 3 -13 136 -25 199 -5 26 -14 79 -134 835 -107
676 -133 835 -155 970 -20 117 -133 827 -139 870 -3 19 -25 159 -49 310 -25
151 -48 299 -52 328 -12 88 -27 61 -20 -35z"/>
<path d="M11209 10288 c-239 -249 -490 -510 -558 -580 -68 -71 -121 -132 -117
-136 4 -4 35 22 69 58 34 36 288 298 564 582 277 284 503 519 503 522 0 28
-85 -54 -461 -446z"/>
<path d="M30014 10520 c3 -107 27 -1135 52 -2285 25 -1149 50 -2094 54 -2099
30 -32 31 48 11 1891 -12 1022 -23 2022 -27 2222 l-6 363 -26 22 c-13 11 -33
35 -44 51 l-20 30 6 -195z"/>
<path d="M21967 9227 c-17 -12 -230 -577 -221 -586 9 -9 21 16 64 129 24 63
74 193 112 289 37 96 67 176 65 177 -2 2 -11 -2 -20 -9z"/>
<path d="M21476 8587 c-556 -1434 -746 -1924 -922 -2373 -101 -259 -184 -474
-184 -477 0 -4 4 -7 9 -7 4 0 39 78 76 173 37 94 348 870 691 1724 343 853
624 1558 624 1567 0 12 -28 36 -42 36 -2 0 -115 -289 -252 -643z"/>
<path d="M34471 7581 l-24 -19 357 -1593 c197 -877 416 -1859 488 -2184 72
-324 132 -592 134 -594 2 -2 7 -1 11 3 4 3 -5 61 -20 129 -15 67 -29 131 -31
142 -3 11 -18 81 -34 155 -17 74 -33 149 -36 165 -3 17 -41 196 -85 398 -44
202 -94 434 -111 515 -36 168 -34 162 -209 977 -71 336 -191 896 -266 1245
-74 349 -138 645 -143 657 -7 22 -7 22 -31 4z"/>
<path d="M30120 5783 c0 -21 7 -308 15 -638 8 -330 15 -684 15 -787 0 -136 3
-188 12 -188 8 0 9 133 4 538 -4 295 -7 641 -7 767 -1 127 -4 254 -8 284 -7
65 -31 83 -31 24z"/>
</g>
</svg>
